<svg id="Слой_1" data-name="Слой 1" xmlns="http://www.w3.org/2000/svg" viewBox="0 0 741 741"><defs><style>.cls-1,.cls-2,.cls-3,.cls-5{stroke:#000;stroke-miterlimit:10;}.cls-1,.cls-5{stroke-width:6px;}.cls-2{fill:#fff;}.cls-2,.cls-3{stroke-width:8px;}.cls-3,.cls-4,.cls-5{fill:#f7931e;}</style></defs><circle class="cls-1" cx="370.5" cy="370.5" r="367.5"/><path class="cls-2" d="M721.5,507.5s156,84,266,27c0,0,162,58,266-16,0,0-66,142-266,142S721.5,507.5,721.5,507.5Z" transform="translate(-611 -128)"/><path class="cls-3" d="M930,403.5c0,20.9-30.67,34.5-68.5,34.5S793,423.45,793,403.5c0-25.65,30.67-51.5,68.5-51.5S930,382.6,930,403.5Z" transform="translate(-611 -128)"/><path class="cls-3" d="M1040.27,404c0,20.9,30.66,34.5,68.5,34.5s68.5-14.55,68.5-34.5c0-25.65-30.67-51.5-68.5-51.5S1040.27,383.09,1040.27,404Z" transform="translate(-611 -128)"/><line class="cls-4" x1="250" y1="224" x2="250" y2="310"/><path d="M861,352a42.28,42.28,0,0,1,5,5.38,58.32,58.32,0,0,1,9.13,16.12A61.25,61.25,0,0,1,879,395a60.51,60.51,0,0,1-3.83,21.5A58.52,58.52,0,0,1,866,432.63a43.27,43.27,0,0,1-5,5.37,43.27,43.27,0,0,1-5-5.37,58.52,58.52,0,0,1-9.15-16.13A60.51,60.51,0,0,1,843,395a61.25,61.25,0,0,1,3.88-21.5A58.32,58.32,0,0,1,856,357.38,42.28,42.28,0,0,1,861,352Z" transform="translate(-611 -128)"/><line class="cls-4" x1="503" y1="224" x2="503" y2="310"/><path d="M1114,352a42.28,42.28,0,0,1,5,5.38,58.32,58.32,0,0,1,9.13,16.12A61.25,61.25,0,0,1,1132,395a60.51,60.51,0,0,1-3.83,21.5,58.52,58.52,0,0,1-9.15,16.13,43.27,43.27,0,0,1-5,5.37,43.27,43.27,0,0,1-5-5.37,58.52,58.52,0,0,1-9.15-16.13A60.51,60.51,0,0,1,1096,395a61.25,61.25,0,0,1,3.88-21.5,58.32,58.32,0,0,1,9.13-16.12A42.28,42.28,0,0,1,1114,352Z" transform="translate(-611 -128)"/><line class="cls-5" x1="190.46" y1="411.09" x2="190.5" y2="477.5"/><line class="cls-5" x1="236.6" y1="421.83" x2="236.6" y2="502.31"/><line class="cls-5" x1="298.5" y1="426.08" x2="298.5" y2="523.95"/><line class="cls-5" x1="377" y1="406" x2="377" y2="532"/><line class="cls-5" x1="456" y1="426" x2="456" y2="523.95"/><line class="cls-5" x1="516.12" y1="428" x2="516.12" y2="504.6"/><line class="cls-5" x1="566.27" y1="421.83" x2="566.27" y2="474.98"/></svg>